<?xml version="1.0" encoding="utf-8"?>
<!-- Generator: Adobe Illustrator 27.5.0, SVG Export Plug-In . SVG Version: 6.00 Build 0)  -->
<svg version="1.1" xmlns="http://www.w3.org/2000/svg" xmlns:xlink="http://www.w3.org/1999/xlink" x="0px" y="0px"
	 viewBox="0 0 500 500" style="enable-background:new 0 0 500 500;" xml:space="preserve">
<g id="BACKGROUND">
	<rect style="fill:#F9F8F6;" width="500" height="500"/>
</g>
<g id="OBJECTS">
	<g>
		<g>
			<g>
				<path style="fill:#ABCEC2;" d="M356.711,392.058c16.114-7.466,26.243-25.717,23.874-43.017
					c-0.531-3.881-1.931-8.086-5.423-9.995c-3.677-2.01-8.577-0.61-11.479,2.379s-4.13,7.187-4.608,11.284
					c-0.478,4.097-0.307,8.253-0.9,12.335c-1.428,9.847-7.523,18.949-16.177,24.158
					C344.116,391.071,347.913,396.134,356.711,392.058z"/>
				<path style="fill:#ABCEC2;" d="M359.209,367.801c-0.567,1.996-1.172,4.065-2.563,5.626c-1.391,1.561-3.811,2.45-5.682,1.483
					c-2.063-1.066-2.545-3.762-2.332-6.037c0.285-3.049,1.362-5.966,2.006-8.962c0.643-2.996,0.817-6.26-0.609-8.984
					c-1.426-2.724-4.875-4.604-7.777-3.467c-2.037,0.798-3.322,2.827-3.92,4.894c-0.599,2.067-0.917,4.215-1.016,6.361
					c-0.741,16.101-16.034,17.808-16.034,17.808s-1.639,4.539,2.15,6.247c4.466,2.013,8.986,4.031,13.803,4.996
					c4.817,0.965,10.026,0.8,14.396-1.406C356,384.153,359.327,379.644,359.209,367.801z"/>
				<path style="fill:#ABCEC2;" d="M172.742,384.611c-8.69,1.602-17.296-3.957-22.638-10.995
					c-5.343-7.038-8.371-15.523-12.726-23.211c-1.448-2.555-3.106-5.091-5.509-6.78c-2.403-1.688-5.712-2.369-8.313-1.006
					c-4.522,2.369-4.413,8.773-3.665,13.823c0.881,5.951,1.777,11.959,3.938,17.574s5.724,10.883,10.877,13.989
					C143.688,393.419,155.118,391.241,172.742,384.611z"/>
				<g>
					<path style="fill:none;stroke:#ABCEC2;stroke-miterlimit:10;" d="M281.586,393.931c16.567-32.342,33.92-65.671,62.177-88.519"
						/>
					<path style="fill:#ABCEC2;" d="M326.989,321.952c8.599-1.622,16.748-5.571,23.349-11.317c2.509-2.183,4.897-4.806,5.557-8.065
						c0.661-3.259-1.072-7.189-4.325-7.881c-2.705-0.575-5.326,1.144-7.469,2.892C335.757,304.387,328.927,313.037,326.989,321.952z
						"/>
					<path style="fill:#ABCEC2;" d="M308.833,345.164c9.231-0.01,18.456-1.852,26.983-5.386c1.859-0.77,3.753-1.672,5.019-3.236
						c1.266-1.564,1.709-3.969,0.505-5.582c-0.879-1.177-2.44-1.686-3.908-1.642c-1.468,0.044-2.876,0.565-4.242,1.106
						C324.015,334.065,315.347,338.984,308.833,345.164z"/>
					<path style="fill:#ABCEC2;" d="M309.409,343.949c2.237-4.662,4.487-9.357,5.83-14.351c1.343-4.994,1.741-10.359,0.257-15.312
						c-0.776-2.588-2.725-5.417-5.411-5.121c-2.542,0.28-3.864,3.135-4.487,5.615C303.249,324.118,303.894,334.186,309.409,343.949z
						"/>
					<path style="fill:#ABCEC2;" d="M297.552,363.992c5.202,1.155,10.484,2.211,15.81,2.046c5.326-0.165,10.763-1.654,14.842-5.083
						c1.95-1.64,3.642-4.31,2.556-6.614c-0.64-1.359-2.123-2.17-3.611-2.38c-1.488-0.209-2.997,0.092-4.459,0.436
						C314.233,354.392,306.139,357.915,297.552,363.992z"/>
					<path style="fill:#ABCEC2;" d="M297.088,363.171c3.485-7.041,3.41-15.112-0.207-22.112c-0.876-1.696-2.055-3.418-4.075-4.346
						c-2.02-0.927-5.067-0.692-6.191,0.913c-0.834,1.191-0.388,2.658,0.092,3.962C289.298,348.625,292.321,355.565,297.088,363.171z
						"/>
				</g>
				<g>
					<path style="fill:none;stroke:#ABCEC2;stroke-miterlimit:10;" d="M192.539,381.447c-16.567-32.342-33.92-65.672-62.177-88.519"
						/>
					<path style="fill:#ABCEC2;" d="M147.137,309.468c-8.599-1.622-16.748-5.571-23.349-11.316
						c-2.509-2.184-4.897-4.806-5.557-8.065c-0.66-3.259,1.072-7.189,4.325-7.881c2.705-0.575,5.326,1.144,7.469,2.892
						C138.368,291.902,145.199,300.553,147.137,309.468z"/>
					<path style="fill:#ABCEC2;" d="M165.292,332.679c-9.231-0.01-18.456-1.852-26.983-5.386c-1.859-0.77-3.753-1.672-5.019-3.236
						c-1.266-1.564-1.709-3.969-0.505-5.582c0.879-1.177,2.44-1.686,3.908-1.642c1.468,0.044,2.876,0.565,4.242,1.106
						C150.111,321.581,158.779,326.5,165.292,332.679z"/>
					<path style="fill:#ABCEC2;" d="M164.716,331.465c-2.237-4.662-4.487-9.357-5.83-14.351c-1.343-4.994-1.741-10.359-0.257-15.312
						c0.776-2.588,2.725-5.417,5.411-5.121c2.542,0.28,3.864,3.135,4.487,5.615C170.876,311.634,170.231,321.701,164.716,331.465z"
						/>
					<path style="fill:#ABCEC2;" d="M176.574,351.508c-5.202,1.155-10.484,2.211-15.81,2.046
						c-5.326-0.165-10.763-1.654-14.842-5.083c-1.95-1.64-3.642-4.31-2.557-6.614c0.641-1.359,2.123-2.17,3.611-2.38
						s2.997,0.092,4.459,0.436C159.893,341.907,167.987,345.431,176.574,351.508z"/>
					<path style="fill:#ABCEC2;" d="M177.037,350.687c-3.485-7.041-3.41-15.112,0.207-22.112c0.876-1.696,2.055-3.418,4.075-4.346
						c2.02-0.927,5.067-0.692,6.191,0.913c0.834,1.191,0.388,2.658-0.092,3.962C184.828,336.141,181.804,343.08,177.037,350.687z"/>
				</g>
			</g>
			<ellipse style="fill:#ABCEC2;" cx="250.875" cy="411.641" rx="147.572" ry="35.916"/>
		</g>
		<g>
			<g>
				<g>
					<g>
						<path style="fill:#262D30;" d="M298.418,340.727c-1.117,16.884-2.233,33.768-3.35,50.652c-0.18,2.714-0.44,5.691-1.701,7.449
							c-1.442,2.011-3.45,1.572-5.459,1.313c-2.224-0.286-3.947-3.402-3.871-7.023l1.025-49.015
							C288.882,343.541,292.631,341.992,298.418,340.727z"/>
						<path style="fill:#262D30;" d="M246.475,370.339c-1.117,16.884-2.233,33.768-3.35,50.652c-0.179,2.714-0.44,5.691-1.701,7.449
							c-1.442,2.011-3.45,1.572-5.459,1.313c-2.225-0.286-3.947-3.402-3.871-7.023l1.025-49.015
							C236.938,373.153,240.688,371.604,246.475,370.339z"/>
						<path style="fill:#5C3D3B;" d="M225.658,322.924c-1.117,16.884-2.234,33.768-3.35,50.652c-0.18,2.714-0.44,5.691-1.701,7.449
							c-1.442,2.011-3.45,1.572-5.459,1.313c-2.225-0.286-3.947-3.402-3.871-7.023l1.025-49.015
							C216.122,325.738,219.871,324.189,225.658,322.924z"/>
						<path style="fill:#262D30;" d="M177.233,344.936c-1.117,16.884-2.234,33.768-3.35,50.652c-0.179,2.714-0.44,5.691-1.701,7.449
							c-1.442,2.011-3.45,1.572-5.459,1.313c-2.225-0.286-3.947-3.402-3.871-7.023l1.025-49.015
							C167.697,347.75,171.446,346.201,177.233,344.936z"/>
					</g>
					<g>
						<path style="fill:#68AD8E;" d="M211.679,277.107c-7.29,1.325-19.793,6.255-32.292,9.792
							c-12.754,3.609-20.136,3.71-22.739,21.595c-1.906,13.094-3.421,53.674-5.785,66.089c24.292,6.876,48.797,10.776,73.665,15.13
							c6.076,1.064,17.752,1.209,24.117-1.5c12.169-5.179,38.462-19.968,51.867-26.954c5.542-23.239,9.395-63.275,8.216-87.137
							c-0.347-7.033-0.17-11.79-3.634-17.92c-3.305-5.849-9.119-10.069-15.167-12.996c-6.047-2.927-13.259-4.601-19.771-6.256
							c-11.215-2.85-23.466-3.009-35.031-2.606c-5.738,0.2-13.682,6.753-18.085,10.438c-4.204,3.518-4.823,12.78-5.521,18.217
							C210.822,268.436,209.228,269.507,211.679,277.107z"/>
						<g>
							<g>
								<path style="fill:#19453B;" d="M225.88,344.694c-14.43-0.545-28.916-1.778-43.233-3.682
									C197.081,341.556,211.565,342.79,225.88,344.694L225.88,344.694z"/>
							</g>
							<g>
								<path style="fill:#4B8C6D;" d="M175.569,352.204c0.387-9.969,0.883-19.931,1.396-29.892
									c0.133-7.11,1.683-15.264-0.493-22.134c-1.028-3.145-3.505-7.071-7.219-6.228c-3.646,1.143-4.534,5.267-5.486,8.642
									c-3.981,14.403-5.952,29.309-6.002,44.265c-0.539-14.973,1.197-30.041,5.124-44.505c0.912-3.477,2.054-8.149,6.105-9.346
									c4.28-1.122,7.339,3.405,8.383,6.87c1.58,4.866,1.145,10.025,0.846,15.016C177.406,327.261,176.559,339.866,175.569,352.204
									L175.569,352.204z"/>
							</g>
							<g>
								<path style="fill:#4B8C6D;" d="M179.095,294.575c10.788-5.129,21.925-9.664,33.228-13.529
									C201.538,286.174,190.392,290.711,179.095,294.575L179.095,294.575z"/>
							</g>
						</g>
					</g>
					<g>
						<g>
							<g>
								<g>
									<path style="fill:#B5EBE6;" d="M265.991,172.79c3.991-0.913,8.343,0.851,10.97,3.992c2.627,3.141,3.614,7.461,3.135,11.528
										c-0.479,4.066-2.324,7.886-4.787,11.157c-0.726,0.964-1.562,1.926-2.699,2.332c-1.219,0.435-2.61,0.142-3.719-0.525
										s-1.975-1.669-2.74-2.713C260.921,191.42,259.867,181.433,265.991,172.79z"/>
									<path style="fill:#B5EBE6;" d="M264.52,170.625c0.797-1.405,2.976-1.75,4.169-0.661c0.933,0.852,1.154,2.286,0.83,3.507
										c-0.324,1.221-1.106,2.267-1.941,3.214c-0.727,0.825-1.508,1.603-2.335,2.327c-0.317,0.277-0.666,0.558-1.084,0.608
										c-0.522,0.063-1.033-0.264-1.321-0.704c-0.288-0.44-0.391-0.974-0.449-1.496C262.12,175.007,263.23,172.897,264.52,170.625
										z"/>
								</g>
								<g>
									<path style="fill:#946867;" d="M230.883,182.641c-2.722-1.157-6.159-0.051-7.85,2.376c-1.691,2.427-1.599,5.898,0.06,8.347
										c1.66,2.448,4.72,3.81,7.671,3.604C230.891,192.686,231.017,188.404,230.883,182.641z"/>
									<g>
										<path style="fill:#5C3D3B;" d="M226.565,196.162c1.312-0.417,2.318-0.364,3.572,0.209
											C229.036,197.184,227.565,197.092,226.565,196.162L226.565,196.162z"/>
									</g>
									<g>
										<g>
											<path style="fill:#5C3D3B;" d="M226.147,186.808c-0.609,2.13-0.86,3.779-0.931,5.993
												C223.85,191.033,224.314,188.081,226.147,186.808L226.147,186.808z"/>
										</g>
										<g>
											<path style="fill:#5C3D3B;" d="M225.303,189.056c1.734,0.786,2.952,1.236,4.776,1.783
												C228.406,191.79,225.947,190.867,225.303,189.056L225.303,189.056z"/>
										</g>
									</g>
								</g>
								<path style="fill:#946867;" d="M253.126,158.426c-6.273-3.036-14.16-0.694-19.217,4.102
									c-5.057,4.795-9.172,14.592-9.105,21.56c0.173,18.298-2.403,33.75,19.246,34.761c7.727,0.361,11.873-0.521,17.273-6.06
									c4.348-4.459,5.607-11.031,6.225-17.227c0.694-6.966,0.819-14.1-0.991-20.862
									C264.746,167.937,260.583,162.036,253.126,158.426z"/>
								<path style="fill:#946867;" d="M258.302,212.035c-0.383,6.651,2.161,12.673,2.903,15.591
									c-5.082,4.993-15.693,5.572-22.627,3.934c3.303-6.85,2.334-10.148,1.081-16.521
									C244.908,215.114,251.987,216.514,258.302,212.035z"/>
							</g>
							<g>
								<path style="fill:#946867;" d="M201.37,345.586c-2.655,1.086-5.31,2.172-7.64,3.622
									c6.179,21.064,9.163,38.447,14.898,59.571c-4.411,3.236-6.274,6.08-12.369,4.783c-9.484-24.702-19.616-47.155-29.1-71.857
									c-1.021-2.66-2.06-5.495-1.518-8.292c0.776-4.004,4.48-6.661,7.891-8.898c3.58-2.348,7.722-4.802,11.876-3.767
									c2.187,0.545,4.025,2.004,5.673,3.54C197.287,330.071,201.881,337.564,201.37,345.586z"/>
								<path style="fill:#946867;" d="M167.279,311c-7.3,1.345-15.414,3.308-19.338,9.609c-3.116,5.004-2.66,11.362-2.023,17.223
									c2.492,22.918,6.965,45.969,10.181,68.546c5.202,2.684,9.788,1.923,14.733-2.697c-1.709-18.757-2.121-37.59-3.83-56.347
									c-0.38-4.176-0.742-8.513,0.698-12.451c2.606-7.132,10.199-10.923,17.128-14.029
									C180.009,316.564,174.02,313.605,167.279,311z"/>
								<path style="fill:#946867;" d="M155.566,402.717c-0.305,4.58-1.74,5.892-6.045,8.716c-3.783,2.15-6.38,3.126-8.879,5.805
									c-1.134,1.216-1.994,3.021-1.464,4.598c0.402,1.197,2.256,1.604,3.499,1.824c1.243,0.22,3.463-0.513,4.703-0.754
									c7.378-1.435,13.415-3.685,20.244-6.826c1.513-0.696,5.715-0.976,6.697-2.321c1.75-2.395-2.374-6.822-3.251-10.175
									c-0.177-0.675-0.363-1.688-0.514-2.266C170.432,400.842,159.5,402.007,155.566,402.717z"/>
								<path style="fill:#946867;" d="M195.53,411.043c-0.529,3.513-3.791,7.372-6.834,9.205c-3.043,1.833-5.243,4.036-8.12,6.12
									c-0.988,0.716-1.995,1.741-1.847,2.952c0.163,1.339,1.671,1.963,2.973,2.316c6.249,1.697,17.493-2.9,22.976-5.079
									c2.236-0.888,8.141-2.233,9.344-4.317c0.915-1.586,2.536-4.706-2.258-8.965c-3.507-3.115-3.643-6.55-4.053-8.053
									c-0.166-0.609-1.113,2.911-1.711,3.115C202.669,409.477,198.562,408.516,195.53,411.043z"/>
								<path style="fill:#B5EBE6;" d="M216.633,293.238c16.578,9.142,35.003,14.919,54.686,16.07
									c-6.52,11.966-17.987,20.646-30.433,26.195c-12.445,5.549-19.625,28.943-39.907,26.283
									c-38.716-12.827-34.959-1.302-52.584-3.614C126.096,293.145,198.462,300.165,216.633,293.238z"/>
								<g>
									<path style="fill:#B5EBE6;" d="M149.93,410.755c4.146,2.104,7.13,6.349,7.706,10.963
										c-4.224,1.677-8.559,3.378-13.102,3.492c-1.235,0.031-2.503-0.064-3.628-0.573c-1.125-0.51-2.091-1.497-2.308-2.712
										c-0.273-1.523,0.637-2.996,1.623-4.189C142.187,415.352,144.632,413.364,149.93,410.755z"/>
									<path style="fill:#B5EBE6;" d="M155.338,420.952c6.547-2.689,13.637-4.23,19.546-8.711c0.135,1.143-0.429,2.91-1.322,3.636
										c-0.893,0.726-1.999,1.131-3.081,1.523c-6.175,2.236-12.349,4.471-18.524,6.707c-2.127,0.77-4.291,1.548-6.55,1.672
										c-2.258,0.124-5.159-0.313-6.262-2.719C144.556,421.853,150.458,422.956,155.338,420.952z"/>
								</g>
								<g>
									<path style="fill:#B5EBE6;" d="M188.976,420.109c4.146,2.104,7.13,6.349,7.706,10.963
										c-4.224,1.677-8.558,3.378-13.102,3.492c-1.235,0.031-2.503-0.064-3.628-0.574c-1.125-0.51-2.091-1.497-2.309-2.712
										c-0.273-1.523,0.637-2.996,1.623-4.189C181.233,424.707,183.678,422.719,188.976,420.109z"/>
									<path style="fill:#B5EBE6;" d="M194.384,430.306c6.546-2.689,13.093-5.377,19.639-8.066
										c0.135,1.143-0.523,2.265-1.416,2.991c-0.893,0.726-1.999,1.131-3.081,1.523c-6.175,2.236-12.349,4.471-18.524,6.707
										c-2.127,0.77-4.291,1.548-6.55,1.672c-2.258,0.124-5.031-0.172-6.271-2.583
										C183.594,431.344,189.504,432.311,194.384,430.306z"/>
								</g>
							</g>
							<g>
								<path style="fill:#946867;" d="M264.666,183.871c2.738-1.118,5.659-0.413,7.315,2.038c1.656,2.451,1.065,5.571-0.63,7.995
									c-1.695,2.424-4.774,3.742-7.722,3.494C263.564,193.115,264.449,189.631,264.666,183.871z"/>
								<g>
									<path style="fill:#5C3D3B;" d="M267.84,196.652c-1.013,0.916-2.485,0.986-3.575,0.158
										C265.527,196.255,266.534,196.216,267.84,196.652L267.84,196.652z"/>
								</g>
								<g>
									<g>
										<path style="fill:#5C3D3B;" d="M268.254,186.177c0.931,0.641,1.454,1.733,1.62,2.834c0.147,1.104-0.055,2.299-0.775,3.171
											c-0.044-1.113-0.069-2.062-0.215-3.032C268.759,188.178,268.521,187.257,268.254,186.177z"/>
									</g>
									<g>
										<path style="fill:#5C3D3B;" d="M269.066,188.436c-0.322,0.922-1.141,1.565-2.03,1.894
											c-0.895,0.311-1.938,0.332-2.771-0.18c0.917-0.285,1.671-0.48,2.435-0.762
											C267.47,189.126,268.178,188.798,269.066,188.436z"/>
									</g>
								</g>
								<path style="fill:#F8F3DF;" d="M268.128,194.776c0.066-0.894-0.591-1.671-1.467-1.735c-0.876-0.064-1.64,0.608-1.706,1.502
									c-0.066,0.894,0.591,1.671,1.467,1.735C267.298,196.342,268.062,195.67,268.128,194.776z"/>
							</g>
							<g>
								<g>
									<path style="fill:#5C3D3B;" d="M245.101,185.322c0.805,2.742-0.008,5.867-1.855,8.048c-0.877,1.158-2.492,1.809-2.252,2.82
										c0.104,0.51,0.553,1.009,1.137,1.205c0.594,0.238,1.295,0.204,1.986,0.146c-0.64,0.274-1.353,0.432-2.109,0.328
										c-1.185-0.129-2.31-1.576-1.67-2.781c0.516-1.002,1.522-1.521,2.144-2.364
										C244.221,190.679,245.092,188.035,245.101,185.322L245.101,185.322z"/>
								</g>
								<g>
									<path style="fill:#5C3D3B;" d="M240.486,218.512c3.352-0.01,6.299-0.272,9.494-1.334
										C247.53,219.507,243.498,219.918,240.486,218.512L240.486,218.512z"/>
								</g>
								<path style="fill:#262D30;" d="M255.473,189.57c-0.238-0.478-0.818-0.672-1.295-0.434c-0.478,0.238-0.672,0.818-0.434,1.295
									c0.238,0.478,0.818,0.672,1.295,0.434C255.516,190.628,255.71,190.048,255.473,189.57z"/>
								<path style="fill:#262D30;" d="M236.405,189.167c-0.238-0.477-0.818-0.672-1.295-0.434
									c-0.477,0.238-0.672,0.818-0.434,1.295c0.238,0.477,0.818,0.672,1.295,0.434
									C236.448,190.224,236.643,189.644,236.405,189.167z"/>
								<path style="opacity:0.502;fill:#5C3D3B;" d="M238.455,183.474c-1.3-0.127-2.64-0.159-3.883,0.242
									c-1.243,0.401-2.385,1.303-2.781,2.548c1.633-1.094,3.611-1.666,5.576-1.614c0.364,0.01,0.75,0.036,1.072-0.135
									C238.76,184.343,238.959,183.885,238.455,183.474z"/>
								<path style="opacity:0.502;fill:#5C3D3B;" d="M252.3,183.765c1.301-0.117,2.641-0.139,3.881,0.271
									c1.24,0.41,2.375,1.321,2.762,2.569c-1.625-1.106-3.598-1.694-5.563-1.657c-0.365,0.007-0.75,0.03-1.071-0.143
									C251.988,184.632,251.793,184.172,252.3,183.765z"/>
								<g>
									<path style="fill:#5C3D3B;" d="M252.069,198.112c-0.336,3.215-2.182,6.641-5.506,7.625
										c-3.303,1.121-7.114-1.385-7.576-4.753c1.187,2.822,4.32,4.756,7.29,3.796
										C249.284,203.898,251.005,200.937,252.069,198.112L252.069,198.112z"/>
								</g>
							</g>
							<path style="fill:#B5EBE6;" d="M267.915,183.389c-0.817-0.204-1.598,0.058-1.88-0.281
								c-14.448-17.358-35.82-13.312-41.228,4.908c-2.236-11.126,2.668-26.289,11.146-30.113c6.875-3.101,16.746-1.127,22.706,3.495
								C264.619,166.02,269.388,174.684,267.915,183.389z"/>
							<g>
								<g>
									<path style="fill:#87C4BE;" d="M265.285,170.13c1.426,1.856,2.364,4.04,2.997,6.283c0.597,2.249,0.908,4.628,0.526,6.942
										c-0.414-2.292-0.884-4.49-1.49-6.678C266.731,174.483,266.008,172.345,265.285,170.13z"/>
								</g>
								<g>
									<path style="fill:#87C4BE;" d="M269.441,171.115c0.674,1.834,0.866,3.793,0.813,5.729
										c-0.046,0.969-0.151,1.941-0.379,2.891c-0.222,0.947-0.546,1.887-1.066,2.717c0.257-1.923,0.378-3.763,0.447-5.645
										C269.338,174.927,269.333,173.057,269.441,171.115z"/>
								</g>
							</g>
							<path style="opacity:0.11;fill:#E9555B;" d="M259.977,195.378c-0.11-1.906-2.2-3.314-4.667-3.144
								c-2.467,0.17-4.378,1.852-4.268,3.758c0.11,1.906,2.2,3.314,4.667,3.144C258.176,198.966,260.087,197.283,259.977,195.378z"
								/>
							<path style="opacity:0.11;fill:#E9555B;" d="M237.687,196.038c-0.11-1.906-2.2-3.314-4.667-3.144
								c-2.467,0.17-4.378,1.852-4.268,3.758c0.11,1.906,2.2,3.313,4.667,3.144C235.887,199.626,237.797,197.943,237.687,196.038z"
								/>
						</g>
						<g>
							<g>
								<path style="fill:#B5EBE6;" d="M215.665,298.604c-0.187-0.15-0.395-0.277-0.575-0.434
									c-0.15-5.591,0.202-11.186,0.978-16.724c0.07-0.549,0.145-1.098,0.225-1.649c0.021-0.134,0.038-0.268,0.059-0.402
									c0.383-2.569,0.875-5.151,1.473-7.728c-0.514-0.262-1.032-0.517-1.538-0.792c-1.181-0.64-2.434-1.419-2.866-2.691
									c-0.409-1.204,0.036-2.515,0.492-3.703c3.861-10.052,8.811-19.685,14.735-28.677c2.246-3.409,5.226-7.064,9.306-7.188
									c0.449-0.014,0.893,0.033,1.331,0.106c0.303-0.36,6.754,1.412,10.925,0.905c5.426-0.66,7.646-1.293,10.993-2.004
									l2.079,0.425c-0.003,0.002-0.009,0.006-0.012,0.008c0.299,0.03,0.596,0.055,0.899,0.093
									c10.918,23.668,18.728,45.721,14.007,70.777c-6.252,5.857-21.017,7.827-29.897,6.842c-4.565-0.021-9.14-0.479-13.675-1.062
									c-5.624-0.722-11.448-1.75-16.045-4.206c-0.952-0.314-1.895-0.648-2.819-1.027
									C215.712,299.189,215.691,298.894,215.665,298.604z"/>
							</g>
							<g>
								<g>
									<path style="fill:#EFEED9;" d="M223.607,271.383c-0.247-1.556-1.467-2.83-2.894-3.498
										c-1.426-0.669-3.039-0.817-4.614-0.833c-4.522-0.045-9.05,0.934-13.149,2.843c-2.31,1.076-4.736,2.84-4.877,5.384
										C206.615,274.35,215.122,273.091,223.607,271.383z"/>
								</g>
								<path style="fill:#F8F3DF;" d="M198.977,274.12c-0.825-3.394-3.378-6.143-6.291-8.07c-0.893-0.591-1.885-1.135-2.955-1.133
									c-1.071,0.002-2.208,0.739-2.301,1.806c-0.094,1.078,0.828,1.944,1.668,2.627c1.693,1.377,3.386,2.754,5.079,4.132
									c0.645,0.525,1.305,1.059,2.083,1.355C197.037,275.132,197.967,275.155,198.977,274.12z"/>
								<g>
									<g>
										<path style="fill:#EFEED9;" d="M197.721,273.483c-1.539-3.753-4.946-6.685-8.887-7.647"/>
										<path style="fill:#CCC4A3;" d="M197.721,273.483c-1.882-3.608-5.04-6.322-8.887-7.647
											C192.87,266.436,196.523,269.583,197.721,273.483L197.721,273.483z"/>
									</g>
									<g>
										<path style="fill:#CCC4A3;" d="M196.218,273.749c-2.302-2.316-4.76-4.307-7.499-6.084
											C191.767,268.813,194.464,271.005,196.218,273.749L196.218,273.749z"/>
									</g>
									<g>
										<path style="fill:#CCC4A3;" d="M200.021,273.231c5.149-3.338,11.395-5.115,17.531-4.977
											C211.427,268.813,205.524,270.486,200.021,273.231L200.021,273.231z"/>
									</g>
									<g>
										<path style="fill:#CCC4A3;" d="M202.142,273.549c5.49-2.256,11.492-3.384,17.426-3.267
											C213.65,270.85,207.863,271.932,202.142,273.549L202.142,273.549z"/>
									</g>
								</g>
								<path style="fill:#F9F791;" d="M223.927,271.117l6.11,39.84l-26.409,0.676c0,0-4.619-36.925-4.568-37.741
									C207.32,272.925,215.579,271.957,223.927,271.117z"/>
								<path style="fill:#E9555B;" d="M199.304,273.863c-1.158-0.27-2.65-0.261-4.144,0.152c-2.606-2.395-5.212-4.789-7.817-7.184
									l2.345,34.989c0,0,10.278,9.542,10.288,9.159c1.006,0.775,2.738,1.127,3.903,0.621L199.304,273.863z"/>
								<g>
									<defs>
										<path id="SVGID_1_" d="M199.304,273.863c-1.158-0.27-2.65-0.261-4.144,0.152c-2.606-2.395-5.212-4.789-7.817-7.184
											l2.345,34.989c0,0,10.278,9.542,10.288,9.159c1.006,0.775,2.738,1.127,3.903,0.621L199.304,273.863z"/>
									</defs>
									<clipPath id="SVGID_00000166649759259620027310000010871038762891776648_">
										<use xlink:href="#SVGID_1_"  style="overflow:visible;"/>
									</clipPath>
									<polygon style="clip-path:url(#SVGID_00000166649759259620027310000010871038762891776648_);fill:#D1CC6B;" points="
										195.34,274.132 200.089,311.86 189.39,302.053 186.829,266.432 									"/>
									<path style="clip-path:url(#SVGID_00000166649759259620027310000010871038762891776648_);fill:#E2DD7A;" d="
										M199.24,273.473c0,0,4.694,38.478,4.713,38.566c-1.368,0.54-3.03,0.242-4.126-0.74c0,0-4.747-37.408-4.496-37.674
										C196.385,272.989,197.677,272.761,199.24,273.473z"/>
								</g>
							</g>
							<g>
								<path style="fill:#946867;" d="M290.183,266.65c-0.449,0.144-0.898,0.288-1.346,0.432c1.57,7.695,2.799,15.459,3.683,23.263
									c0.308,2.719,0.546,5.609-0.659,8.066c-1.163,2.37-3.534,3.968-6.045,4.783c-2.511,0.815-5.185,0.946-7.822,1.071
									c-18.376,0.867-35.469,1.674-53.845,2.541c1.333-3.633,0.194-7.786,1.527-11.419c12.05-0.739,24.036-3.265,35.842-5.783
									c2.055-0.438,10.037-1.729,10.572-2.274c2.474-2.521,0.697-4.858-0.655-8.121c-1.439-3.473-2.646-6.523-4.552-9.496
									C273.594,268.108,280.305,266.503,290.183,266.65z"/>
								<path style="fill:#946867;" d="M228.417,296.099c-4.094-1.169-7.684-3.605-11.375-5.727
									c-3.139-1.804-6.539-3.433-10.102-3.795c-1.146-0.117-2.683,0.572-1.824,2.083c0.116,0.203,0.549,0.431,0.636,0.648
									c-0.672-0.574-2.282-0.311-2.673,0.481c-0.391,0.792,0.034,2.046,0.652,2.43c-0.909,0.184-1.502,0.944-1.434,1.869
									c0.068,0.925,1.27,1.526,2.487,2.07c-0.704,0.036-1.402,1.212-1.087,1.842c0.315,0.63,1.745,2.445,2.28,2.904
									c4.661,3.999,6.694,5.699,14.657,5.699c2.811,0,7.039,0.882,7.095-0.589C227.841,303.053,227.411,301.86,228.417,296.099z"
									/>
								<path style="fill:#946867;" d="M219.612,293.599c-1.847-2.489-3.292-5.276-4.261-8.22c-0.185-0.562-0.355-1.152-0.271-1.737
									c0.084-0.586,0.489-1.165,1.072-1.266c0.777-0.134,1.418,0.573,1.887,1.207c3.594,4.851,6.694,9.765,10.781,12.392
									C225.26,294.695,221.191,295.727,219.612,293.599z"/>
								<g>
									<g>
										<path style="fill:#5C3D3B;" d="M205.346,289.134c3.398,0.714,6.546,2.06,9.402,4.038
											C211.348,292.462,208.204,291.106,205.346,289.134L205.346,289.134z"/>
									</g>
									<g>
										<path style="fill:#5C3D3B;" d="M203.73,292.218c3.268,0.242,6.322,1.732,8.773,3.866
											C209.361,295.153,206.6,293.78,203.73,292.218L203.73,292.218z"/>
									</g>
									<g>
										<path style="fill:#5C3D3B;" d="M204.783,296.157c2.339-0.155,4.667,0.82,6.193,2.6
											C208.688,298.149,206.824,297.357,204.783,296.157L204.783,296.157z"/>
									</g>
								</g>
							</g>
							<g>
								<path style="fill:#B5EBE6;" d="M292.475,265.918c-2.108-6.673-4.233-13.388-7.486-19.584
									c-3.253-6.197-7.731-11.911-13.68-15.598c-2.009-1.245-4.215-2.262-6.565-2.521c-2.35-0.258-4.866,0.32-6.601,1.926
									c-2.996,2.773-3.516,6.876-2.972,10.921c1.437,10.672,4.702,21.798,8.39,31.915c0.436,1.195,0.961,2.475,2.06,3.115
									c1.161,0.676,2.617,0.44,3.928,0.147C277.332,274.504,284.825,271.478,292.475,265.918z"/>
							</g>
							<g>
								<path style="fill:#946867;" d="M187.22,279.033c1.723,0.995,3.276,2.284,4.572,3.794c0.413,0.481,0.815,1.166,0.481,1.705
									c-0.192,0.308-0.581,0.448-0.944,0.435c-0.363-0.013-0.708-0.155-1.04-0.302c-1.831-0.809-3.64-1.909-4.658-3.632
									c-0.241-0.408-0.438-0.879-0.351-1.344C185.367,279.222,186.013,278.336,187.22,279.033z"/>
								<path style="fill:#946867;" d="M186.823,282.069c-0.733,0.125-1.558,0.488-1.705,1.217
									c-0.142,0.701,0.422,1.338,0.982,1.784c1.018,0.81,2.168,1.434,3.312,2.054c0.349,0.189,0.708,0.381,1.102,0.43
									c0.394,0.048,0.835-0.08,1.049-0.414c0.337-0.526-0.031-1.211-0.427-1.694C189.978,284.034,188.489,282.895,186.823,282.069
									z"/>
								<path style="fill:#946867;" d="M185.426,285.588c-0.79,1.087,2.246,3.891,4.275,4.28c0.361,0.069,0.795,0.082,1.026-0.204
									c0.269-0.333,0.075-0.828-0.154-1.19c-0.863-1.362-2.138-2.459-3.614-3.109c-0.282-0.124-0.579-0.234-0.887-0.228
									C185.764,285.142,185.626,285.313,185.426,285.588z"/>
								<path style="fill:#946867;" d="M189.152,292.494c0.294,0.197,0.653,0.387,0.985,0.266c0.3-0.11,0.464-0.454,0.455-0.774
									c-0.009-0.319-0.157-0.617-0.318-0.893c-0.922-1.573-2.375-2.751-3.797-3.893c-0.208-0.167-0.422-0.338-0.674-0.426
									c-0.252-0.088-0.554-0.08-0.762,0.088c-0.226,0.184-0.285,0.515-0.22,0.799
									C184.885,287.945,187.432,291.344,189.152,292.494z"/>
								<g>
									<g>
										<path style="fill:#5C3D3B;" d="M186.485,282.182c1.433,0.762,2.694,1.621,3.921,2.684
											C188.853,284.412,187.472,283.463,186.485,282.182L186.485,282.182z"/>
									</g>
									<g>
										<path style="fill:#5C3D3B;" d="M186.202,285.12c1.281,0.385,2.396,1.063,3.32,2.031
											C188.239,286.768,187.128,286.085,186.202,285.12L186.202,285.12z"/>
									</g>
									<g>
										<path style="fill:#5C3D3B;" d="M185.445,286.826c1.57,0.675,2.921,1.799,3.863,3.226
											C187.876,289.109,186.629,288.065,185.445,286.826L185.445,286.826z"/>
									</g>
								</g>
							</g>
						</g>
						<g>
							<g>
								<path style="fill:#87C4BE;" d="M261.465,228.424c-4.182,12.108,2.204,32.883,7.078,44.489c0,0,1.279,2.793,1.279,2.793
									C263.011,264.304,255.793,241.042,261.465,228.424L261.465,228.424z"/>
							</g>
							<g>
								<path style="fill:#87C4BE;" d="M189.643,312.446c-10.594,4.868-19.29,13.574-24.124,24.176
									c-0.608,1.331-1.374,3.286-1.869,4.65c0.301-1.41,0.935-3.452,1.416-4.838C169.244,325.404,178.402,316.176,189.643,312.446
									L189.643,312.446z"/>
							</g>
							<g>
								<path style="fill:#87C4BE;" d="M237.972,229.815c-7.038,11.52-11.26,24.532-13.641,37.764
									c-0.375,1.892-0.628,3.802-0.92,5.714C224.204,257.926,228.754,242.276,237.972,229.815L237.972,229.815z"/>
							</g>
						</g>
					</g>
					<g>
						<path style="fill:#68AD8E;" d="M298.482,296.645c-11.835-0.582-23.728-1.162-35.507,0.127
							c-3.972,0.435-8.059,1.133-11.391,3.339c-2.79,1.847-4.831,4.609-6.698,7.386c-6.075,9.032-11,18.95-13.454,29.555
							c-2.455,10.605-2.348,21.94,1.979,31.721c4.487,0.079,8.975,0.158,14.268,0.059c18.941-8.464,34.334-16.302,53.275-24.766
							L298.482,296.645z"/>
						<g>
							<g>
								<path style="fill:#4B8C6D;" d="M247.113,366.643c7.411-16.594,15.046-33.33,18.584-51.253c0.557-2.868,0.986-5.974,0-8.758
									c-1.443-4.465-7.119-5.231-10.821-3.152c-3.992,2.16-6.318,6.244-8.59,10.074c-9.208,15.79-14.182,33.512-19.274,50.965
									c4.534-17.641,9.302-35.535,18.487-51.422c2.284-3.914,4.753-8.226,8.92-10.481c4.168-2.408,10.594-1.322,12.175,3.692
									c1.05,3.015,0.594,6.236-0.005,9.26C262.968,333.545,255.067,350.267,247.113,366.643L247.113,366.643z"/>
							</g>
							<g>
								<path style="fill:#4B8C6D;" d="M272.256,308.207c10.756-0.925,21.634-1.171,32.423-0.733
									C293.92,308.4,283.044,308.645,272.256,308.207L272.256,308.207z"/>
							</g>
							<g>
								<path style="fill:#4B8C6D;" d="M292.615,296.073c6.038-0.547,12.402,3.518,14.432,9.234
									C303.667,300.325,298.556,297.048,292.615,296.073L292.615,296.073z"/>
							</g>
						</g>
					</g>
				</g>
				<g>
					<g>
						<rect x="316.927" y="68.017" style="fill:#296C5D;" width="5.194" height="333.715"/>
						<g>
							<path style="fill:#296C5D;" d="M358.056,407.608l0.595-5.117c0.098-0.841-0.505-1.603-1.346-1.701l-79.5-9.247
								c-0.842-0.098-1.603,0.505-1.701,1.346l-0.595,5.117c-0.098,0.841,0.505,1.603,1.346,1.701l79.5,9.247
								C357.197,409.052,357.959,408.449,358.056,407.608z"/>
							<path style="fill:#296C5D;" d="M283.494,408.029l1.027-8.828c0.174-1.493-0.896-2.844-2.388-3.017l-3.623-0.421
								c-1.493-0.174-2.844,0.896-3.017,2.388l-1.027,8.828c-0.174,1.493,0.896,2.844,2.388,3.017l3.623,0.422
								C281.969,410.591,283.32,409.522,283.494,408.029z"/>
							<path style="fill:#296C5D;" d="M357.013,416.581l1.027-8.828c0.174-1.493-0.896-2.844-2.388-3.017l-3.623-0.421
								c-1.493-0.174-2.844,0.896-3.017,2.389l-1.027,8.828c-0.174,1.493,0.896,2.844,2.388,3.017l3.623,0.421
								C355.488,419.143,356.839,418.073,357.013,416.581z"/>
						</g>
						<rect x="265.636" y="68.015" style="fill:#296C5D;" width="107.776" height="1.812"/>
						<path style="fill:#F8F3DF;" d="M366.846,71.059c0.012-1.358,0.03-2.75,0.447-4.017c0.417-1.267,1.326-2.402,2.474-2.575
							c1.327-0.2,2.589,0.951,3.174,2.363c0.585,1.412,0.642,3.035,0.677,4.605c-0.581,0.05-1.161,0.101-1.742,0.151
							c-0.249-0.942-0.058-1.969-0.202-2.941c-0.144-0.972-0.909-1.988-1.701-1.658c-0.372,0.155-0.622,0.563-0.804,0.974
							c-0.452,1.019-0.631,2.202-0.506,3.342C368.015,71.507,367.325,71.518,366.846,71.059z"/>
						<rect x="369.638" y="68.015" style="fill:#296C5D;" width="6.493" height="1.812"/>
						<path style="fill:#296C5D;" d="M374.971,68.015c1.773,0.155,2.645,0.059,2.645-4.226c0-0.788-0.775-2.588,0.11-2.689
							c0.73-0.083,0.975,1.407,1.211,2.303c0.236,0.897,0.223,1.84,0.152,2.764c-0.066,0.868-0.189,1.759-0.619,2.517
							c-0.429,0.758-1.812,1.174-2.683,1.143C375.194,69.805,375.235,68.734,374.971,68.015z"/>
						<path style="fill:#296C5D;" d="M266.814,68.013c-1.773,0.155-2.645,0.059-2.645-4.226c0-0.788,0.775-2.588-0.11-2.689
							c-0.73-0.083-0.975,1.407-1.211,2.303c-0.236,0.897-0.223,1.84-0.152,2.764c0.066,0.868,0.19,1.758,0.619,2.516
							c0.429,0.758,1.812,1.175,2.683,1.143C266.591,69.803,266.55,68.732,266.814,68.013z"/>
					</g>
					<g>
						<g>
							<path style="fill:#EFEED9;" d="M390.367,121.612V74.941c0-2.332-1.89-4.222-4.222-4.222h-27.915
								c-2.332,0-4.222,1.89-4.222,4.222v46.671c0,2.332,1.89,4.222,4.222,4.222h27.915
								C388.477,125.834,390.367,123.943,390.367,121.612z"/>
							<path style="fill:#DBDAD9;" d="M387.633,116.203V79.086c0-2.332-1.89-4.222-4.222-4.222h-22.523
								c-2.332,0-4.222,1.89-4.222,4.222v37.118c0,2.332,1.89,4.222,4.222,4.222h22.523
								C385.743,120.425,387.633,118.535,387.633,116.203z"/>
						</g>
						<g>
							<rect x="362.119" y="84.517" style="fill:#F8F3DF;" width="19.478" height="27.593"/>
							<g>
								<rect x="366.657" y="96.429" style="fill:#499791;" width="11.062" height="1.901"/>
								
									<rect x="366.657" y="96.429" transform="matrix(-1.836970e-16 1 -1 -1.836970e-16 469.5679 -274.8081)" style="fill:#499791;" width="11.062" height="1.901"/>
							</g>
						</g>
					</g>
					<g>
						<g>
							<path style="fill:#1E5949;" d="M338.844,175.857c0.033,22.914-2.805,44.748-5.991,67.44c-2.4,0.401-5.08,1.068-5.673,1.224
								C330.8,221.908,334.092,199.007,338.844,175.857z"/>
							<path style="fill:#296C5D;" d="M338.844,175.857c-9.985-0.498-35.688-2.218-37.766-2.322l-13.283,57.631l40.376,8.709
								L338.844,175.857z"/>
							<path style="fill:#1E5949;" d="M287.759,231.101c0.185,1.745,0.369,3.49,0.554,5.234l38.867,8.185l1.9-4.448L287.759,231.101
								z"/>
						</g>
						<polygon style="fill:#262D30;" points="333.012,181.429 304.143,179.338 303.193,185.505 332.102,187.804 						"/>
						<g>
							<path style="fill:#F8F3DF;" d="M329.87,193.835c0-1.409-1.143-2.552-2.552-2.552c-1.409,0-2.552,1.142-2.552,2.552
								s1.142,2.552,2.552,2.552C328.728,196.387,329.87,195.245,329.87,193.835z"/>
							<path style="fill:#F8F3DF;" d="M319.479,192.537c0-1.409-1.142-2.552-2.552-2.552c-1.409,0-2.552,1.143-2.552,2.552
								s1.142,2.552,2.552,2.552C318.337,195.089,319.479,193.946,319.479,192.537z"/>
							<circle style="fill:#F8F3DF;" cx="305.745" cy="191.284" r="2.552"/>
							<path style="fill:#B5EBE6;" d="M309.318,206.009c0-1.165-0.872-2.11-1.948-2.11c-1.076,0-1.948,0.945-1.948,2.11
								c0,1.165,0.872,2.11,1.948,2.11C308.445,208.119,309.318,207.174,309.318,206.009z"/>
							<path style="fill:#B5EBE6;" d="M307.77,212.846c0-1.165-0.872-2.11-1.948-2.11c-1.076,0-1.948,0.945-1.948,2.11
								c0,1.165,0.872,2.11,1.948,2.11C306.898,214.956,307.77,214.012,307.77,212.846z"/>
							<path style="fill:#B5EBE6;" d="M306.349,219.684c0-1.165-0.872-2.11-1.948-2.11c-1.076,0-1.948,0.945-1.948,2.11
								c0,1.165,0.872,2.11,1.948,2.11C305.477,221.794,306.349,220.849,306.349,219.684z"/>
							<path style="fill:#B5EBE6;" d="M315.86,206.907c0-1.165-0.872-2.11-1.948-2.11c-1.076,0-1.948,0.945-1.948,2.11
								s0.872,2.11,1.948,2.11C314.988,209.017,315.86,208.072,315.86,206.907z"/>
							<path style="fill:#B5EBE6;" d="M314.312,213.744c0-1.165-0.872-2.11-1.948-2.11c-1.076,0-1.948,0.945-1.948,2.11
								c0,1.165,0.872,2.11,1.948,2.11C313.44,215.854,314.312,214.909,314.312,213.744z"/>
							<ellipse style="fill:#B5EBE6;" cx="310.943" cy="220.581" rx="1.948" ry="2.11"/>
							<path style="fill:#B5EBE6;" d="M322.819,208.119c0-1.165-0.872-2.11-1.948-2.11c-1.076,0-1.948,0.945-1.948,2.11
								c0,1.165,0.872,2.11,1.948,2.11C321.947,210.229,322.819,209.284,322.819,208.119z"/>
							<path style="fill:#B5EBE6;" d="M321.271,214.956c0-1.165-0.872-2.11-1.948-2.11c-1.076,0-1.948,0.945-1.948,2.11
								c0,1.165,0.872,2.11,1.948,2.11C320.399,217.066,321.271,216.122,321.271,214.956z"/>
							<path style="fill:#68AD8E;" d="M301.793,207.957c0-1.255-1.017-2.273-2.272-2.273c-1.255,0-2.272,1.017-2.272,2.273
								c0,1.255,1.017,2.272,2.272,2.272C300.776,210.229,301.793,209.212,301.793,207.957z"/>
							<path style="fill:#F9F791;" d="M300.171,215.301c0-1.255-1.017-2.272-2.272-2.272s-2.272,1.017-2.272,2.272
								s1.017,2.272,2.272,2.272S300.171,216.556,300.171,215.301z"/>
							<path style="fill:#B5EBE6;" d="M319.85,221.794c0-1.165-0.872-2.11-1.948-2.11c-1.076,0-1.948,0.945-1.948,2.11
								c0,1.165,0.872,2.11,1.948,2.11C318.978,223.904,319.85,222.959,319.85,221.794z"/>
							<polygon style="fill:#262D30;" points="325.416,199.128 305.422,196.136 304.401,201.538 324.767,204.472 							"/>
							<path style="fill:#F9F791;" d="M325.266,233.984c0-1.214-0.984-2.197-2.198-2.197c-1.214,0-2.197,0.984-2.197,2.197
								c0,1.214,0.984,2.197,2.197,2.197C324.282,236.182,325.266,235.198,325.266,233.984z"/>
							<path style="fill:#F8F3DF;" d="M309.967,231.101c0-1.214-0.984-2.197-2.197-2.197c-1.214,0-2.198,0.984-2.198,2.197
								c0,1.214,0.984,2.197,2.198,2.197C308.983,233.298,309.967,232.314,309.967,231.101z"/>
						</g>
					</g>
					<g>
						<path style="opacity:0.9608;fill:#D4D2CD;" d="M278.088,277.019c-2.047-0.01-4.095-0.019-6.142-0.029
							c-0.024,0.788-0.048,1.575-0.08,2.456c1.937-0.154,3.885-0.177,5.826-0.068C277.841,279.11,277.91,278.101,278.088,277.019z"
							/>
						<path style="fill:none;stroke:#EFEED9;stroke-miterlimit:10;" d="M372.305,121.603c2.758,12.985,0.778,26.923-5.487,38.627
							c-3.906,7.296-9.628,15.022-7.342,22.975c2.901,10.094,16.6,12.972,21.625,22.195c4.1,7.525,1.249,16.786-1.669,24.844
							c-4.681,12.927-9.362,25.854-14.043,38.781c-3.155,8.713-7.041,18.262-15.41,22.24c-7.495,3.562-16.917,1.303-23.11-4.221
							c-6.193-5.524-9.453-13.763-10.439-22.003c-0.986-8.24,0.094-16.577,1.378-24.776"/>
						<path style="fill:none;stroke:#EFEED9;stroke-miterlimit:10;" d="M298.345,236.202c-4.013,4.362-4.022,11.079-2.742,16.866
							c1.28,5.787,3.615,11.451,3.474,17.376c-0.205,8.609-5.554,16.193-7.639,24.549c-1.721,6.898-1.133,14.351,1.649,20.894
							c0.787,1.851,1.795,3.691,3.409,4.892c1.614,1.201,3.962,1.604,5.643,0.499c2.166-1.424,2.343-4.569,1.674-7.073
							c-1.471-5.503-5.729-9.838-10.344-13.175c-4.616-3.338-10.7-3.066-15.53-6.085c-5.753-3.596-3.592-10.869-2.653-16.73"/>
					</g>
				</g>
			</g>
		</g>
	</g>
</g>
</svg>
